<?xml version="1.0" encoding="UTF-8" standalone="no"?>
<!-- Created with Inkscape (http://www.inkscape.org/) -->

<svg
   width="94.027084mm"
   height="38.564583mm"
   viewBox="0 0 94.027084 38.564583"
   version="1.1"
   id="svg5"
   inkscape:version="1.2.1 (9c6d41e410, 2022-07-14)"
   sodipodi:docname="JIG.svg"
   xmlns:inkscape="http://www.inkscape.org/namespaces/inkscape"
   xmlns:sodipodi="http://sodipodi.sourceforge.net/DTD/sodipodi-0.dtd"
   xmlns="http://www.w3.org/2000/svg"
   xmlns:svg="http://www.w3.org/2000/svg">
  <sodipodi:namedview
     id="namedview7"
     pagecolor="#ffffff"
     bordercolor="#666666"
     borderopacity="1.0"
     inkscape:showpageshadow="2"
     inkscape:pageopacity="0.0"
     inkscape:pagecheckerboard="0"
     inkscape:deskcolor="#d1d1d1"
     inkscape:document-units="mm"
     showgrid="true"
     inkscape:zoom="2.5506453"
     inkscape:cx="178.1902"
     inkscape:cy="125.06639"
     inkscape:window-width="1920"
     inkscape:window-height="1009"
     inkscape:window-x="-8"
     inkscape:window-y="-8"
     inkscape:window-maximized="1"
     inkscape:current-layer="layer1">
    <inkscape:grid
       type="xygrid"
       id="grid1495"
       originx="-21.066666"
       originy="-63.4" />
  </sodipodi:namedview>
  <defs
     id="defs2" />
  <g
     inkscape:label="Layer 1"
     inkscape:groupmode="layer"
     id="layer1"
     transform="translate(-21.066666,-63.4)">
    <rect
       style="fill:#f5f5f5;fill-opacity:1;stroke:#b3b3b3;stroke-width:0.2;stroke-linecap:round;stroke-linejoin:round;stroke-opacity:1"
       id="rect12654"
       width="93.827087"
       height="38.364582"
       x="21.166666"
       y="63.5" />
    <path
       id="rect234"
       style="fill:#a7f5f5;stroke:#000000;stroke-width:0.2;stroke-linecap:round;stroke-linejoin:round"
       d="m 26.827416,72.86042 h 25.82017 c 0.881968,0 1.592,0.710032 1.592,1.592 v 9.845164 c 0,0.881968 -0.710032,1.592 -1.592,1.592 h -25.82017 c -0.881968,0 -1.592,-0.710032 -1.592,-1.592 V 74.45242 c 0,-0.881968 0.710032,-1.592 1.592,-1.592 z" />
    <path
       id="rect234-9"
       style="fill:#f5bdf5;stroke:#000000;stroke-width:0.2;stroke-linecap:round;stroke-linejoin:round"
       d="m 69.06075,72.760414 h 25.82017 c 0.881968,0 1.591999,0.710032 1.591999,1.592 v 20.6285 c 0,0.881968 -0.710031,1.592 -1.591999,1.592 H 69.06075 c -0.881968,0 -1.592,-0.710032 -1.592,-1.592 v -20.6285 c 0,-0.881968 0.710032,-1.592 1.592,-1.592 z" />
    <g
       aria-label="TX"
       id="text7796"
       style="font-size:3.52778px;line-height:1.25;font-family:'Liberation Sans';-inkscape-font-specification:'Liberation Sans';stroke-width:0.264583">
      <path
         d="m 49.723061,75.939554 v 2.158354 h -0.327284 v -2.158354 h -0.833714 v -0.268717 h 1.994712 v 0.268717 z"
         id="path14808" />
      <path
         d="m 52.553209,78.097908 -0.728638,-1.06109 -0.744141,1.06109 h -0.363458 l 0.923286,-1.260906 -0.852661,-1.166165 h 0.363457 l 0.67524,0.952569 0.656291,-0.952569 h 0.363458 l -0.830269,1.154107 0.900893,1.272964 z"
         id="path14810" />
    </g>
    <g
       aria-label="RX"
       id="text7800"
       style="font-size:3.52778px;line-height:1.25;font-family:'Liberation Sans';-inkscape-font-specification:'Liberation Sans';stroke-width:0.264583">
      <path
         d="m 50.095131,83.389572 -0.630453,-1.007691 h -0.756199 v 1.007691 h -0.329007 v -2.427071 h 1.14205 q 0.409967,0 0.632176,0.184313 0.223931,0.18259 0.223931,0.509874 0,0.27044 -0.158475,0.454753 -0.156751,0.184313 -0.434082,0.232544 l 0.68902,1.045587 z M 50.0469,81.660133 q 0,-0.211873 -0.144695,-0.322117 -0.142971,-0.111965 -0.413411,-0.111965 h -0.780315 v 0.895725 h 0.794095 q 0.260105,0 0.401354,-0.120578 0.142972,-0.122301 0.142972,-0.341065 z"
         id="path14813" />
      <path
         d="m 52.553208,83.389572 -0.728638,-1.06109 -0.744141,1.06109 h -0.363458 l 0.923286,-1.260906 -0.852661,-1.166165 h 0.363457 l 0.67524,0.952569 0.656291,-0.952569 h 0.363458 l -0.830269,1.154108 0.900893,1.272963 z"
         id="path14815" />
    </g>
    <path
       id="path7854"
       style="fill:#f7f5f5;stroke:#000000;stroke-width:0.2;stroke-linecap:round;stroke-linejoin:round"
       d="m 52.287507,89.41584 a 0.69374895,0.6937508 0 0 1 -0.693749,0.693751 0.69374895,0.6937508 0 0 1 -0.693749,-0.693751 0.69374895,0.6937508 0 0 1 0.693749,-0.693751 0.69374895,0.6937508 0 0 1 0.693749,0.693751 z" />
    <path
       id="path7854-6"
       style="fill:#f7f7f7;stroke:#000000;stroke-width:0.2;stroke-linecap:round;stroke-linejoin:round"
       d="m 56.256257,89.41584 a 0.69374895,0.6937508 0 0 1 -0.693749,0.693751 0.69374895,0.6937508 0 0 1 -0.693749,-0.693751 0.69374895,0.6937508 0 0 1 0.693749,-0.693751 0.69374895,0.6937508 0 0 1 0.693749,0.693751 z" />
    <path
       style="fill:none;stroke:#000000;stroke-width:0.264583px;stroke-linecap:butt;stroke-linejoin:miter;stroke-opacity:1"
       d="M 52.277947,89.426173 55.5625,87.828337"
       id="path7950"
       sodipodi:nodetypes="cc" />
    <path
       id="path7854-8"
       style="fill:#f7f7f7;stroke:#000000;stroke-width:0.2;stroke-linecap:round;stroke-linejoin:round"
       d="M 52.287499,93.38459 A 0.69374895,0.6937508 0 0 1 51.59375,94.078341 0.69374895,0.6937508 0 0 1 50.900001,93.38459 0.69374895,0.6937508 0 0 1 51.59375,92.690839 0.69374895,0.6937508 0 0 1 52.287499,93.38459 Z" />
    <path
       id="path7854-6-0"
       style="fill:#f7f7f7;stroke:#000000;stroke-width:0.2;stroke-linecap:round;stroke-linejoin:round"
       d="M 56.256249,93.38459 A 0.69374895,0.6937508 0 0 1 55.5625,94.078341 0.69374895,0.6937508 0 0 1 54.868751,93.38459 0.69374895,0.6937508 0 0 1 55.5625,92.690839 0.69374895,0.6937508 0 0 1 56.256249,93.38459 Z" />
    <path
       style="fill:none;stroke:#000000;stroke-width:0.264583px;stroke-linecap:butt;stroke-linejoin:miter;stroke-opacity:1"
       d="m 52.277948,93.394924 3.284553,-1.597836"
       id="path7950-9"
       sodipodi:nodetypes="cc" />
    <path
       id="path8184"
       style="stroke:#000000;stroke-width:0.2;stroke-linecap:round;stroke-linejoin:round"
       d="m 48.58333,93.397919 a 0.42916697,0.42916757 0 0 1 -0.429167,0.429167 0.42916697,0.42916757 0 0 1 -0.429167,-0.429167 0.42916697,0.42916757 0 0 1 0.429167,-0.429168 0.42916697,0.42916757 0 0 1 0.429167,0.429168 z" />
    <path
       style="fill:none;stroke:#000000;stroke-width:0.264583px;stroke-linecap:butt;stroke-linejoin:miter;stroke-opacity:1"
       d="m 50.8,89.415837 h -2.645833 l 10e-7,3.704167"
       id="path9018" />
    <path
       style="fill:none;stroke:#000000;stroke-width:0.264583px;stroke-linecap:butt;stroke-linejoin:miter;stroke-opacity:1"
       d="M 50.8,93.384586 H 48.41875"
       id="path9020" />
    <path
       style="fill:none;stroke:#000000;stroke-width:0.264583px;stroke-linecap:butt;stroke-linejoin:miter;stroke-opacity:1"
       d="m 48.154167,93.64917 v 1.5875"
       id="path9022" />
    <path
       style="fill:none;stroke:#000000;stroke-width:0.264583px;stroke-linecap:butt;stroke-linejoin:miter;stroke-opacity:1"
       d="M 48.154167,97.102083 46.302083,95.25 h 3.704167 z"
       id="path9024"
       sodipodi:nodetypes="cccc" />
    <g
       aria-label="USB-UART"
       id="text9028"
       style="font-size:3.88056px;line-height:1.25;font-family:'Liberation Sans';-inkscape-font-specification:'Liberation Sans';stroke-width:0.264583">
      <path
         d="m 27.544057,71.539132 q -0.327801,0 -0.572231,-0.119373 -0.24443,-0.119372 -0.378961,-0.346749 -0.134531,-0.227376 -0.134531,-0.541914 v -1.69964 h 0.361907 v 1.669323 q 0,0.365697 0.185691,0.555178 0.185691,0.18948 0.53623,0.18948 0.360013,0 0.558967,-0.195165 0.20085,-0.197059 0.20085,-0.574125 v -1.644691 h 0.360013 v 1.665533 q 0,0.324012 -0.138321,0.558968 -0.136426,0.234956 -0.388435,0.360013 -0.250114,0.123162 -0.591179,0.123162 z"
         id="path14823" />
      <path
         d="m 31.371562,70.764157 q 0,0.369487 -0.289905,0.572231 -0.28801,0.202744 -0.812871,0.202744 -0.975824,0 -1.131198,-0.67834 l 0.350538,-0.07011 q 0.06063,0.24064 0.257694,0.354329 0.19706,0.111793 0.53623,0.111793 0.350538,0 0.540019,-0.119373 0.191375,-0.121267 0.191375,-0.354328 0,-0.130742 -0.06063,-0.212218 -0.05874,-0.08148 -0.166742,-0.134531 -0.108004,-0.05306 -0.257694,-0.08906 -0.149689,-0.036 -0.331591,-0.07769 -0.316432,-0.07011 -0.48128,-0.140216 -0.162953,-0.07011 -0.257693,-0.155374 -0.09474,-0.08716 -0.1459,-0.202744 -0.04927,-0.115583 -0.04927,-0.265272 0,-0.34296 0.261483,-0.528651 0.263378,-0.185691 0.752237,-0.185691 0.454753,0 0.695393,0.140216 0.240641,0.138321 0.337276,0.473701 l -0.356224,0.06253 q -0.05874,-0.212219 -0.223587,-0.306959 -0.164848,-0.09664 -0.456647,-0.09664 -0.320222,0 -0.48886,0.106109 -0.168638,0.106109 -0.168638,0.316433 0,0.123162 0.06442,0.204639 0.06632,0.07958 0.18948,0.136425 0.123162,0.05495 0.490755,0.136426 0.123162,0.02842 0.244429,0.05874 0.123163,0.02842 0.234956,0.07011 0.111794,0.03979 0.208429,0.09474 0.09853,0.05495 0.170532,0.134531 0.072,0.07958 0.111794,0.187586 0.04169,0.108004 0.04169,0.253904 z"
         id="path14825" />
      <path
         d="m 33.933338,70.748999 q 0,0.356223 -0.259588,0.555177 -0.259588,0.19706 -0.721921,0.19706 h -1.083828 v -2.66978 h 0.97014 q 0.939823,0 0.939823,0.648023 0,0.236851 -0.132636,0.397909 -0.132636,0.161059 -0.375171,0.216008 0.318327,0.0379 0.490754,0.214113 0.172427,0.174322 0.172427,0.44149 z M 33.414162,69.52306 q 0,-0.216008 -0.147795,-0.308853 -0.147795,-0.09285 -0.428226,-0.09285 h -0.608232 v 0.845083 h 0.608232 q 0.289905,0 0.432016,-0.108004 0.144005,-0.109898 0.144005,-0.33538 z m 0.153479,1.197516 q 0,-0.471806 -0.663182,-0.471806 h -0.67455 v 0.962561 h 0.702972 q 0.331591,0 0.483176,-0.123162 0.151584,-0.123163 0.151584,-0.367593 z"
         id="path14827" />
      <path
         d="m 34.310404,70.622047 v -0.303169 h 0.947402 v 0.303169 z"
         id="path14829" />
      <path
         d="m 36.815336,71.539132 q -0.327801,0 -0.572231,-0.119373 -0.24443,-0.119372 -0.378961,-0.346749 -0.134531,-0.227376 -0.134531,-0.541914 v -1.69964 h 0.361908 v 1.669323 q 0,0.365697 0.185691,0.555178 0.18569,0.18948 0.536229,0.18948 0.360013,0 0.558968,-0.195165 0.200849,-0.197059 0.200849,-0.574125 v -1.644691 h 0.360013 v 1.665533 q 0,0.324012 -0.138321,0.558968 -0.136426,0.234956 -0.388435,0.360013 -0.250114,0.123162 -0.591179,0.123162 z"
         id="path14831" />
      <path
         d="m 40.443887,71.501236 -0.305064,-0.78066 h -1.216464 l -0.306959,0.78066 h -0.375171 l 1.089513,-2.66978 h 0.411172 l 1.07246,2.66978 z m -0.913296,-2.396928 -0.01705,0.05306 q -0.04737,0.157268 -0.140216,0.403593 l -0.341065,0.877295 h 0.998562 L 39.68786,69.557166 Q 39.6348,69.426425 39.581751,69.261577 Z"
         id="path14833" />
      <path
         d="m 43.026505,71.501236 -0.693498,-1.108461 h -0.83182 v 1.108461 H 41.13928 v -2.66978 h 1.256255 q 0.450964,0 0.695393,0.202744 0.246325,0.20085 0.246325,0.560862 0,0.297485 -0.174322,0.500229 -0.172427,0.202744 -0.477491,0.255799 l 0.757922,1.150146 z m -0.05306,-1.902384 q 0,-0.233061 -0.159163,-0.354328 -0.157269,-0.123163 -0.454753,-0.123163 h -0.858347 v 0.985299 h 0.873505 q 0.286116,0 0.44149,-0.132637 0.157268,-0.134531 0.157268,-0.375171 z"
         id="path14835" />
      <path
         d="m 44.91752,69.127046 v 2.37419 h -0.360013 v -2.37419 h -0.917085 v -0.29559 h 2.194184 v 0.29559 z"
         id="path14837" />
    </g>
    <g
       aria-label="Reflow Controller(ESP32)"
       id="text9028-8"
       style="font-size:3.88056px;line-height:1.25;font-family:'Liberation Sans';-inkscape-font-specification:'Liberation Sans';stroke-width:0.264583">
      <path
         d="m 70.697839,71.399605 -0.693498,-1.108461 h -0.831819 v 1.108461 h -0.361908 v -2.66978 h 1.256255 q 0.450964,0 0.695394,0.202744 0.246324,0.200849 0.246324,0.560862 0,0.297485 -0.174322,0.500229 -0.172427,0.202744 -0.477491,0.255798 l 0.757922,1.150147 z m -0.05305,-1.902384 q 0,-0.233061 -0.159164,-0.354329 -0.157269,-0.123162 -0.454753,-0.123162 h -0.858346 v 0.985299 h 0.873504 q 0.286116,0 0.44149,-0.132637 0.157269,-0.134531 0.157269,-0.375171 z"
         id="path14840" />
      <path
         d="m 71.817669,70.446518 q 0,0.352434 0.1459,0.543809 0.1459,0.191375 0.426331,0.191375 0.221692,0 0.354328,-0.08906 0.134531,-0.08906 0.181902,-0.225481 l 0.299379,0.08527 q -0.183796,0.48507 -0.835609,0.48507 -0.454753,0 -0.693499,-0.270957 -0.23685,-0.270957 -0.23685,-0.805292 0,-0.507808 0.23685,-0.778765 0.238746,-0.270957 0.680235,-0.270957 0.903822,0 0.903822,1.089513 v 0.04547 z m 1.110355,-0.261483 q -0.02842,-0.324012 -0.164848,-0.471806 -0.136426,-0.14969 -0.392224,-0.14969 -0.24822,0 -0.39412,0.166743 -0.144005,0.164848 -0.155374,0.454753 z"
         id="path14842" />
      <path
         d="m 74.13691,69.597646 v 1.801959 h -0.341065 v -1.801959 h -0.288011 v -0.24822 h 0.288011 V 69.11826 q 0,-0.280431 0.123162,-0.403593 0.123162,-0.123163 0.377066,-0.123163 0.142111,0 0.24064,0.02274 v 0.259588 q -0.08527,-0.01516 -0.151584,-0.01516 -0.130741,0 -0.18948,0.06632 -0.05874,0.06632 -0.05874,0.24064 v 0.183796 h 0.399803 v 0.24822 z"
         id="path14844" />
      <path
         d="m 74.792512,71.399605 v -2.81189 h 0.341065 v 2.81189 z"
         id="path14846" />
      <path
         d="m 77.388394,70.372621 q 0,0.538124 -0.23685,0.801502 -0.236851,0.263378 -0.687814,0.263378 -0.449069,0 -0.67834,-0.272852 -0.229272,-0.274747 -0.229272,-0.792028 0,-1.061091 0.918981,-1.061091 0.469911,0 0.691603,0.259588 0.221692,0.257694 0.221692,0.801503 z m -0.358118,0 q 0,-0.424437 -0.126952,-0.615812 -0.125057,-0.19327 -0.422541,-0.19327 -0.299379,0 -0.43391,0.19706 -0.132637,0.195165 -0.132637,0.612022 0,0.405488 0.130742,0.610127 0.132636,0.202744 0.414962,0.202744 0.306958,0 0.4377,-0.19706 0.132636,-0.197059 0.132636,-0.615811 z"
         id="path14848" />
      <path
         d="m 79.775848,71.399605 h -0.396014 l -0.358118,-1.449526 -0.06821,-0.320222 q -0.01705,0.08527 -0.05305,0.246325 -0.036,0.159163 -0.386541,1.523423 H 78.119796 L 77.54567,69.349426 h 0.337276 l 0.346749,1.392682 q 0.01326,0.04547 0.08148,0.375171 l 0.03221,-0.140216 0.428226,-1.627637 h 0.365697 l 0.358118,1.40784 0.08716,0.360013 0.05874,-0.263378 0.388435,-1.504475 h 0.333486 z"
         id="path14850" />
      <path
         d="m 82.932593,68.985624 q -0.443384,0 -0.689709,0.286115 -0.246325,0.284221 -0.246325,0.78066 0,0.490754 0.255799,0.790133 0.257693,0.297485 0.695393,0.297485 0.560863,0 0.843188,-0.555178 l 0.29559,0.147795 q -0.164848,0.344854 -0.464227,0.52486 -0.297485,0.180007 -0.691604,0.180007 -0.403593,0 -0.699183,-0.166743 -0.293695,-0.168638 -0.449068,-0.479385 -0.15348,-0.312643 -0.15348,-0.738974 0,-0.638549 0.344855,-1.000457 0.344854,-0.361908 0.954981,-0.361908 0.426331,0 0.712447,0.166743 0.286115,0.166743 0.420647,0.494544 l -0.34296,0.113688 q -0.09285,-0.233061 -0.299379,-0.356223 -0.204639,-0.123162 -0.486965,-0.123162 z"
         id="path14852" />
      <path
         d="m 86.229553,70.372621 q 0,0.538124 -0.236851,0.801502 -0.23685,0.263378 -0.687814,0.263378 -0.449069,0 -0.67834,-0.272852 -0.229271,-0.274747 -0.229271,-0.792028 0,-1.061091 0.91898,-1.061091 0.469912,0 0.691604,0.259588 0.221692,0.257694 0.221692,0.801503 z m -0.358118,0 q 0,-0.424437 -0.126952,-0.615812 -0.125057,-0.19327 -0.422542,-0.19327 -0.299379,0 -0.43391,0.19706 -0.132636,0.195165 -0.132636,0.612022 0,0.405488 0.130741,0.610127 0.132637,0.202744 0.414963,0.202744 0.306958,0 0.437699,-0.19706 0.132637,-0.197059 0.132637,-0.615811 z"
         id="path14854" />
      <path
         d="m 87.955719,71.399605 v -1.299836 q 0,-0.202744 -0.03979,-0.314538 -0.03979,-0.111793 -0.126952,-0.161058 -0.08716,-0.04927 -0.255799,-0.04927 -0.246325,0 -0.388435,0.168638 -0.14211,0.168637 -0.14211,0.468016 V 71.3996 h -0.341065 v -1.612479 q 0,-0.358118 -0.01137,-0.4377 h 0.322117 q 0.0019,0.0095 0.0038,0.05116 0.0019,0.04169 0.0038,0.09663 0.0038,0.05305 0.0076,0.202744 h 0.0057 q 0.117478,-0.212218 0.270957,-0.299379 0.155374,-0.08906 0.384645,-0.08906 0.337275,0 0.492649,0.168638 0.157269,0.166742 0.157269,0.553283 v 1.366154 z"
         id="path14856" />
      <path
         d="m 89.60041,71.384446 q -0.168638,0.04548 -0.344855,0.04548 -0.409278,0 -0.409278,-0.464227 V 69.59765 h -0.23685 v -0.24822 h 0.250114 l 0.100425,-0.458543 h 0.227376 v 0.458543 h 0.378961 v 0.24822 h -0.378961 v 1.294151 q 0,0.147795 0.04737,0.208429 0.04926,0.05874 0.168638,0.05874 0.06821,0 0.19706,-0.02653 z"
         id="path14858" />
      <path
         d="m 89.897894,71.399605 v -1.572688 q 0,-0.216008 -0.01137,-0.477491 h 0.322117 q 0.01516,0.348644 0.01516,0.418752 h 0.0076 q 0.08148,-0.263378 0.187585,-0.360013 0.106109,-0.09663 0.29938,-0.09663 0.06821,0 0.13832,0.01895 v 0.312643 q -0.06821,-0.01895 -0.181901,-0.01895 -0.212218,0 -0.324012,0.183796 -0.111793,0.181901 -0.111793,0.522966 v 1.06867 z"
         id="path14860" />
      <path
         d="m 92.916318,70.372621 q 0,0.538124 -0.23685,0.801502 -0.236851,0.263378 -0.687814,0.263378 -0.449069,0 -0.67834,-0.272852 -0.229272,-0.274747 -0.229272,-0.792028 0,-1.061091 0.918981,-1.061091 0.469911,0 0.691603,0.259588 0.221692,0.257694 0.221692,0.801503 z m -0.358118,0 q 0,-0.424437 -0.126952,-0.615812 -0.125057,-0.19327 -0.422541,-0.19327 -0.299379,0 -0.43391,0.19706 -0.132637,0.195165 -0.132637,0.612022 0,0.405488 0.130742,0.610127 0.132636,0.202744 0.414962,0.202744 0.306959,0 0.4377,-0.19706 0.132636,-0.197059 0.132636,-0.615811 z"
         id="path14862" />
      <path
         d="m 93.340754,71.399605 v -2.81189 h 0.341065 v 2.81189 z"
         id="path14864" />
      <path
         d="m 94.202891,71.399605 v -2.81189 h 0.341065 v 2.81189 z"
         id="path14866" />
      <path
         d="m 95.326509,70.446518 q 0,0.352434 0.1459,0.543809 0.1459,0.191375 0.426331,0.191375 0.221692,0 0.354329,-0.08906 0.134531,-0.08906 0.181901,-0.225481 l 0.299379,0.08527 q -0.183796,0.48507 -0.835609,0.48507 -0.454753,0 -0.693498,-0.270957 -0.236851,-0.270957 -0.236851,-0.805292 0,-0.507808 0.236851,-0.778765 0.238745,-0.270957 0.680235,-0.270957 0.903821,0 0.903821,1.089513 v 0.04547 z m 1.110356,-0.261483 q -0.02842,-0.324012 -0.164848,-0.471806 -0.136426,-0.14969 -0.392225,-0.14969 -0.248219,0 -0.394119,0.166743 -0.144005,0.164848 -0.155374,0.454753 z"
         id="path14868" />
      <path
         d="m 97.230787,71.399605 v -1.572688 q 0,-0.216008 -0.01137,-0.477491 h 0.322116 q 0.01516,0.348644 0.01516,0.418752 h 0.0076 q 0.08148,-0.263378 0.187586,-0.360013 0.106109,-0.09663 0.299379,-0.09663 0.06821,0 0.138321,0.01895 v 0.312643 q -0.06821,-0.01895 -0.181902,-0.01895 -0.212218,0 -0.324011,0.183796 -0.111794,0.181901 -0.111794,0.522966 v 1.06867 z"
         id="path14870" />
      <path
         d="m 98.494623,70.391569 q 0,-0.547599 0.170532,-0.983404 0.172427,-0.435805 0.528651,-0.82045 h 0.329696 q -0.354329,0.394119 -0.521072,0.837503 -0.164848,0.443385 -0.164848,0.97014 0,0.524861 0.162954,0.966351 0.164848,0.441489 0.522966,0.841293 h -0.329696 q -0.358118,-0.38654 -0.528651,-0.822345 -0.170532,-0.4377 -0.170532,-0.981509 z"
         id="path14872" />
      <path
         d="m 99.864567,71.399605 v -2.66978 h 2.025543 v 0.29559 h -1.66364 v 0.856451 h 1.54995 v 0.2918 h -1.54995 v 0.930349 h 1.74133 v 0.29559 z"
         id="path14874" />
      <path
         d="m 104.54473,70.662526 q 0,0.369487 -0.2899,0.572231 -0.28801,0.202744 -0.81287,0.202744 -0.97583,0 -1.1312,-0.67834 l 0.35054,-0.07011 q 0.0606,0.24064 0.25769,0.354329 0.19706,0.111793 0.53623,0.111793 0.35054,0 0.54002,-0.119373 0.19137,-0.121267 0.19137,-0.354328 0,-0.130742 -0.0606,-0.212218 -0.0587,-0.08148 -0.16674,-0.134531 -0.10801,-0.05306 -0.2577,-0.08906 -0.14969,-0.036 -0.33159,-0.07769 -0.31643,-0.07011 -0.48128,-0.140216 -0.16295,-0.07011 -0.25769,-0.155374 -0.0947,-0.08716 -0.1459,-0.202744 -0.0493,-0.115583 -0.0493,-0.265272 0,-0.34296 0.26149,-0.528651 0.26338,-0.185691 0.75223,-0.185691 0.45476,0 0.6954,0.140216 0.24064,0.13832 0.33727,0.473701 l -0.35622,0.06253 q -0.0587,-0.212218 -0.22359,-0.306958 -0.16484,-0.09664 -0.45664,-0.09664 -0.32023,0 -0.48886,0.106109 -0.16864,0.106109 -0.16864,0.316432 0,0.123163 0.0644,0.204639 0.0663,0.07958 0.18948,0.136426 0.12316,0.05495 0.49076,0.136426 0.12316,0.02842 0.24443,0.05874 0.12316,0.02842 0.23495,0.07011 0.1118,0.03979 0.20843,0.09474 0.0985,0.05495 0.17053,0.134531 0.072,0.07958 0.1118,0.187586 0.0417,0.108004 0.0417,0.253904 z"
         id="path14876" />
      <path
         d="m 107.10651,69.533222 q 0,0.378961 -0.24822,0.602548 -0.24632,0.223587 -0.67076,0.223587 h -0.78445 v 1.040248 h -0.36191 v -2.66978 h 1.12362 q 0.44907,0 0.6954,0.210323 0.24632,0.210324 0.24632,0.593074 z m -0.3638,0.0038 q 0,-0.517282 -0.6215,-0.517282 h -0.71813 v 1.053512 h 0.73329 q 0.60634,0 0.60634,-0.53623 z"
         id="path14878" />
      <path
         d="m 109.2988,70.662526 q 0,0.369487 -0.23496,0.572231 -0.23495,0.202744 -0.67076,0.202744 -0.40549,0 -0.64802,-0.181901 -0.24064,-0.183796 -0.28612,-0.541914 l 0.35244,-0.03221 q 0.0682,0.473701 0.5817,0.473701 0.2577,0 0.4036,-0.126952 0.14779,-0.126952 0.14779,-0.377066 0,-0.217903 -0.16864,-0.33917 -0.16674,-0.123162 -0.48317,-0.123162 h -0.19327 v -0.29559 h 0.18569 q 0.28043,0 0.43391,-0.121267 0.15537,-0.123163 0.15537,-0.33917 0,-0.214113 -0.12695,-0.337276 -0.12506,-0.125057 -0.37327,-0.125057 -0.22549,0 -0.3657,0.115583 -0.13832,0.115583 -0.16106,0.325907 l -0.34296,-0.02653 q 0.0379,-0.327801 0.27096,-0.511597 0.23495,-0.183796 0.60254,-0.183796 0.4017,0 0.6234,0.187586 0.22358,0.185691 0.22358,0.519176 0,0.255799 -0.144,0.416857 -0.14211,0.159164 -0.41497,0.216008 v 0.0076 q 0.29938,0.03221 0.46613,0.20085 0.16674,0.168637 0.16674,0.424436 z"
         id="path14880" />
      <path
         d="m 109.66449,71.399605 v -0.24064 q 0.0966,-0.221693 0.23496,-0.39033 0.14022,-0.170533 0.2937,-0.306959 0.15347,-0.13832 0.30316,-0.255798 0.15159,-0.117478 0.27286,-0.234956 0.12126,-0.117478 0.19516,-0.246325 0.0758,-0.128846 0.0758,-0.291799 0,-0.219798 -0.12884,-0.341065 -0.12885,-0.121268 -0.35812,-0.121268 -0.2179,0 -0.36001,0.119373 -0.14022,0.117478 -0.16485,0.331591 l -0.34865,-0.03221 q 0.0379,-0.320222 0.27096,-0.509702 0.23496,-0.189481 0.60255,-0.189481 0.40359,0 0.6196,0.191375 0.2179,0.189481 0.2179,0.54002 0,0.155374 -0.072,0.308853 -0.0701,0.153479 -0.21032,0.306958 -0.14022,0.153479 -0.53623,0.475596 -0.21791,0.178112 -0.34675,0.322117 -0.12885,0.14211 -0.18569,0.274747 h 1.39268 v 0.289905 z"
         id="path14882" />
      <path
         d="m 112.67913,70.399148 q 0,0.547598 -0.17243,0.983404 -0.17053,0.435805 -0.52675,0.82045 h -0.3297 q 0.35622,-0.397909 0.52107,-0.837504 0.16485,-0.441489 0.16485,-0.97014 0,-0.52865 -0.16674,-0.97014 -0.16485,-0.441489 -0.51918,-0.837503 h 0.3297 q 0.35812,0.38654 0.52865,0.82424 0.17053,0.435805 0.17053,0.979614 z"
         id="path14884" />
    </g>
    <path
       style="fill:none;stroke:#000000;stroke-width:0.264583px;stroke-linecap:butt;stroke-linejoin:miter;stroke-opacity:1"
       d="m 56.223957,89.429166 11.244793,1e-6"
       id="path9080"
       sodipodi:nodetypes="cc" />
    <path
       style="fill:none;stroke:#000000;stroke-width:0.264583px;stroke-linecap:butt;stroke-linejoin:miter;stroke-opacity:1"
       d="m 56.223957,93.397915 11.244793,2e-6"
       id="path9082"
       sodipodi:nodetypes="cc" />
    <g
       aria-label="EN"
       id="text9086"
       style="font-size:3.52778px;line-height:1.25;font-family:'Liberation Sans';-inkscape-font-specification:'Liberation Sans';stroke-width:0.264583">
      <path
         d="m 68.791669,90.533318 v -2.427072 h 1.841405 v 0.268718 h -1.512398 v 0.778592 h 1.409045 v 0.265272 H 69.120676 V 90.2646 h 1.583023 v 0.268718 z"
         id="path14887" />
      <path
         d="m 72.719081,90.533318 -1.298802,-2.067059 0.0086,0.167087 0.0086,0.287666 v 1.612306 h -0.292834 v -2.427072 h 0.382406 l 1.312582,2.080839 q -0.02067,-0.337619 -0.02067,-0.489204 v -1.591635 h 0.296278 v 2.427072 z"
         id="path14889" />
    </g>
    <g
       aria-label="IO0"
       id="text9090"
       style="font-size:3.52778px;line-height:1.25;font-family:'Liberation Sans';-inkscape-font-specification:'Liberation Sans';stroke-width:0.264583">
      <path
         d="m 68.791664,94.538246 v -2.427071 h 0.329007 v 2.427071 z"
         id="path14892" />
      <path
         d="m 72.021443,93.313514 q 0,0.380683 -0.146416,0.666626 -0.144694,0.285943 -0.416857,0.43925 -0.272163,0.153307 -0.642511,0.153307 -0.373793,0 -0.645956,-0.151584 -0.27044,-0.151584 -0.413411,-0.437528 -0.142972,-0.287665 -0.142972,-0.670071 0,-0.582222 0.318672,-0.909506 0.318671,-0.329007 0.887112,-0.329007 0.370348,0 0.642511,0.148139 0.272163,0.146417 0.415134,0.427193 0.144694,0.280775 0.144694,0.663181 z m -0.335897,0 q 0,-0.45303 -0.227376,-0.711413 -0.225654,-0.258382 -0.639066,-0.258382 -0.416856,0 -0.644233,0.254937 -0.227376,0.254937 -0.227376,0.714858 0,0.456475 0.229099,0.725193 0.230821,0.266995 0.639065,0.266995 0.420302,0 0.644234,-0.258382 0.225653,-0.260105 0.225653,-0.733806 z"
         id="path14894" />
      <path
         d="m 74.014432,93.323849 q 0,0.60806 -0.215318,0.928454 -0.213596,0.320394 -0.632176,0.320394 -0.418579,0 -0.62873,-0.318671 -0.210151,-0.318672 -0.210151,-0.930177 0,-0.625285 0.203261,-0.937066 0.204983,-0.311782 0.645956,-0.311782 0.428914,0 0.632175,0.315227 0.204983,0.315226 0.204983,0.933621 z m -0.315226,0 q 0,-0.525377 -0.122301,-0.761366 -0.120578,-0.23599 -0.399631,-0.23599 -0.285943,0 -0.411689,0.232545 -0.124024,0.232544 -0.124024,0.764811 0,0.516765 0.125746,0.756199 0.127469,0.239434 0.403077,0.239434 0.273885,0 0.401353,-0.244601 0.127469,-0.244602 0.127469,-0.751032 z"
         id="path14896" />
    </g>
    <g
       aria-label="TX"
       id="text9094"
       style="font-size:3.52778px;line-height:1.25;font-family:'Liberation Sans';-inkscape-font-specification:'Liberation Sans';stroke-width:0.264583">
      <path
         d="M 69.952668,81.185396 V 83.34375 H 69.625384 V 81.185396 H 68.79167 v -0.268717 h 1.994712 v 0.268717 z"
         id="path14899" />
      <path
         d="m 72.782816,83.34375 -0.728638,-1.06109 -0.744141,1.06109 h -0.363458 l 0.923286,-1.260906 -0.852662,-1.166165 h 0.363458 l 0.675239,0.952569 0.656291,-0.952569 h 0.363458 l -0.830268,1.154107 0.900893,1.272964 z"
         id="path14901" />
    </g>
    <g
       aria-label="RX"
       id="text9098"
       style="font-size:3.52778px;line-height:1.25;font-family:'Liberation Sans';-inkscape-font-specification:'Liberation Sans';stroke-width:0.264583">
      <path
         d="m 70.507328,78.052086 -0.630453,-1.007691 h -0.756199 v 1.007691 h -0.329007 v -2.427071 h 1.14205 q 0.409967,0 0.632176,0.184312 0.223931,0.18259 0.223931,0.509875 0,0.27044 -0.158474,0.454753 -0.156752,0.184312 -0.434083,0.232544 l 0.68902,1.045587 z m -0.04823,-1.729439 q 0,-0.211874 -0.144694,-0.322117 -0.142972,-0.111965 -0.413412,-0.111965 h -0.780315 v 0.895725 h 0.794095 q 0.260105,0 0.401354,-0.120579 0.142972,-0.1223 0.142972,-0.341064 z"
         id="path14904" />
      <path
         d="m 72.965405,78.052086 -0.728638,-1.06109 -0.744141,1.06109 h -0.363458 l 0.923286,-1.260906 -0.852661,-1.166165 h 0.363458 l 0.675239,0.952569 0.656291,-0.952569 h 0.363458 l -0.830269,1.154107 0.900893,1.272964 z"
         id="path14906" />
    </g>
    <path
       style="fill:none;stroke:#000000;stroke-width:0.264583px;stroke-linecap:butt;stroke-linejoin:miter;stroke-opacity:1"
       d="M 54.239583,76.729166 H 67.468749"
       id="path9122" />
    <path
       style="fill:none;stroke:#000000;stroke-width:0.264583px;stroke-linecap:butt;stroke-linejoin:miter;stroke-opacity:1"
       d="M 54.239583,82.020832 H 67.468749"
       id="path9124" />
  </g>
</svg>
